<svg width="68" height="53" viewBox="0 0 68 53" fill="none" xmlns="http://www.w3.org/2000/svg">
<path d="M22.9445 17.4297H16.1C15.4925 17.4297 15 16.9707 15 16.4045V10.0252C15 9.45897 15.4925 8.99998 16.1 8.99998H22.9445C23.552 8.99998 24.0444 9.45897 24.0444 10.0252V16.4045C24.0444 16.9707 23.552 17.4297 22.9445 17.4297Z" fill="#E6E6EA"/>
<path d="M22.9445 28.9248H16.1C15.4925 28.9248 15 28.4658 15 27.8996V21.5202C15 20.954 15.4925 20.495 16.1 20.495H22.9445C23.552 20.495 24.0444 20.954 24.0444 21.5202V27.8996C24.0444 28.4658 23.552 28.9248 22.9445 28.9248Z" fill="#E6E6EA"/>
<path d="M22.9445 40.4198H16.1C15.4925 40.4198 15 39.9608 15 39.3946V33.0153C15 32.4491 15.4925 31.9901 16.1 31.9901H22.9445C23.552 31.9901 24.0444 32.4491 24.0444 33.0153V39.3946C24.0444 39.9608 23.552 40.4198 22.9445 40.4198Z" fill="#E6E6EA"/>
<path d="M42.3672 13.7666H27.6157C27.1455 13.7666 26.7646 13.4115 26.7646 12.9734C26.7646 12.5354 27.1457 12.1803 27.6157 12.1803H42.3674C42.8375 12.1803 43.2184 12.5354 43.2184 12.9734C43.2184 13.4115 42.8374 13.7666 42.3672 13.7666Z" fill="#777777"/>
<path d="M18.0907 14.5922L17.3507 13.1982C17.1422 12.8056 17.3147 12.3298 17.736 12.1355C18.1573 11.9412 18.6679 12.102 18.8762 12.4946L19.1008 12.9176L20.9276 11.2792C21.2662 10.9755 21.8049 10.985 22.131 11.3007C22.4569 11.6164 22.4466 12.1185 22.1079 12.4223L19.4437 14.8119C19.0288 15.1842 18.3454 15.0723 18.0907 14.5922Z" fill="#0069CF"/>
<path d="M42.3672 25.4587H27.6157C27.1455 25.4587 26.7646 25.1036 26.7646 24.6655C26.7646 24.2274 27.1457 23.8723 27.6157 23.8723H42.3674C42.8375 23.8723 43.2184 24.2274 43.2184 24.6655C43.2184 25.1035 42.8374 25.4587 42.3672 25.4587Z" fill="#777777"/>
<path d="M18.0907 26.2843L17.3507 24.8904C17.1422 24.4978 17.3147 24.022 17.736 23.8277C18.1573 23.6334 18.6679 23.7942 18.8762 24.1868L19.1008 24.6098L20.9276 22.9714C21.2662 22.6677 21.8049 22.6772 22.131 22.9929C22.4569 23.3086 22.4466 23.8107 22.1079 24.1145L19.4437 26.5041C19.0288 26.8761 18.3454 26.7644 18.0907 26.2843Z" fill="#0069CF"/>
<path d="M42.3672 37.1507H27.6157C27.1455 37.1507 26.7646 36.7955 26.7646 36.3575C26.7646 35.9194 27.1457 35.5643 27.6157 35.5643H42.3674C42.8375 35.5643 43.2184 35.9194 43.2184 36.3575C43.2184 36.7955 42.8374 37.1507 42.3672 37.1507Z" fill="#777777"/>
<circle cx="43.7221" cy="32.4556" r="10.2778" fill="#FC8311"/>
<path fill-rule="evenodd" clip-rule="evenodd" d="M42.707 41.4423C48.2733 41.4423 52.7857 36.9299 52.7857 31.3636C52.7857 28.8895 51.8942 26.6236 50.415 24.8696C52.6074 26.7184 54.0001 29.4855 54.0001 32.5779C54.0001 38.1442 49.4877 42.6566 43.9214 42.6566C40.8292 42.6566 38.0622 41.264 36.2134 39.0719C37.9673 40.5509 40.2331 41.4423 42.707 41.4423Z" fill="#E4760E"/>
<path d="M42.1341 27V30.2889H39V33.6912H42.1341V36.8667H45.7325V33.6912H48.8667V30.2889H45.7325V27H42.1341Z" fill="white"/>
</svg>
