<svg width="24" height="24" viewBox="0 0 24 24" fill="none" xmlns="http://www.w3.org/2000/svg">
<path d="M21.25 4H2.75C2.33579 4 2 4.33579 2 4.75C2 5.16421 2.33579 5.5 2.75 5.5H21.25C21.6642 5.5 22 5.16421 22 4.75C22 4.33579 21.6642 4 21.25 4Z" fill="#1A1E27"/>
<path d="M21.25 11H2.75C2.33579 11 2 11.3358 2 11.75C2 12.1642 2.33579 12.5 2.75 12.5H21.25C21.6642 12.5 22 12.1642 22 11.75C22 11.3358 21.6642 11 21.25 11Z" fill="#1A1E27"/>
<path d="M21.25 18H2.75C2.33579 18 2 18.3358 2 18.75C2 19.1642 2.33579 19.5 2.75 19.5H21.25C21.6642 19.5 22 19.1642 22 18.75C22 18.3358 21.6642 18 21.25 18Z" fill="#1A1E27"/>
</svg>
