<svg width="24" height="24" viewBox="0 0 24 24" fill="none" xmlns="http://www.w3.org/2000/svg">
<path fill-rule="evenodd" clip-rule="evenodd" d="M10.8114 1.07096C11.1723 0.861397 11.5821 0.751038 11.9995 0.751038C12.4167 0.751038 12.8267 0.861382 13.1876 1.07096C13.414 1.20241 13.616 1.36995 13.7862 1.56601H14.85C15.265 1.56601 15.6631 1.73089 15.9566 2.02439C16.2501 2.31787 16.415 2.71592 16.415 3.131V5.679C16.415 6.09321 16.0792 6.429 15.665 6.429H8.33398C7.91977 6.429 7.58398 6.09321 7.58398 5.679V3.13C7.58449 2.71539 7.74947 2.31686 8.04299 2.0237C8.33649 1.73056 8.73433 1.56601 9.14899 1.56601H10.2128C10.383 1.36993 10.585 1.2024 10.8114 1.07096ZM11.9995 2.25104C11.8467 2.25104 11.6967 2.29143 11.5646 2.36813C11.4325 2.44484 11.323 2.55512 11.2473 2.68777C11.1138 2.92165 10.8652 3.06601 10.5959 3.06601H9.14899C9.13168 3.06601 9.11514 3.07289 9.103 3.08501C9.09095 3.09705 9.08406 3.11346 9.08398 3.13073V4.929H14.915V3.131C14.915 3.11377 14.9081 3.09725 14.8959 3.08505C14.8837 3.07286 14.8672 3.06601 14.85 3.06601H13.403C13.1337 3.06601 12.8851 2.92165 12.7516 2.68777C12.6758 2.55506 12.5664 2.4448 12.4344 2.36813C12.3023 2.29145 12.1522 2.25104 11.9995 2.25104Z" fill="#1A1E27"/>
<path fill-rule="evenodd" clip-rule="evenodd" d="M5.5275 3.32199H8.33398V4.82199H5.51996L5.50244 4.82179C5.4363 4.82024 5.37226 4.84497 5.32432 4.89057C5.27797 4.93465 5.25035 4.99472 5.24695 5.05835V21.5116C5.25035 21.5753 5.27797 21.6353 5.32432 21.6794C5.37226 21.725 5.4363 21.7497 5.50244 21.7482L5.51996 21.748H18.4789L18.4965 21.7482C18.5626 21.7497 18.6267 21.725 18.6746 21.6794C18.7209 21.6354 18.7485 21.5754 18.752 21.5116V5.05834C18.7485 4.99461 18.7209 4.93457 18.6746 4.89057C18.6267 4.845 18.5626 4.82024 18.4965 4.82179L18.4789 4.82199H15.665V3.32199H18.4714C18.9308 3.31387 19.3752 3.48678 19.7084 3.80368C20.044 4.12289 20.2393 4.56207 20.2517 5.02494L20.252 5.04498V21.525L20.2517 21.545C20.2393 22.0079 20.044 22.4471 19.7084 22.7663C19.3752 23.0832 18.9308 23.2561 18.4714 23.248H5.52753C5.06808 23.2561 4.62371 23.0832 4.29055 22.7663C3.95502 22.4472 3.75959 22.008 3.74722 21.545L3.74695 21.525V5.04498L3.74722 5.02494C3.75959 4.56195 3.95502 4.12281 4.29055 3.80368C4.6237 3.48681 5.06806 3.31387 5.5275 3.32199Z" fill="#1A1E27"/>
<path fill-rule="evenodd" clip-rule="evenodd" d="M7.73804 15.341C7.73804 14.9268 8.07382 14.591 8.48804 14.591H15.588C16.0022 14.591 16.338 14.9268 16.338 15.341C16.338 15.7552 16.0022 16.091 15.588 16.091H8.48804C8.07382 16.091 7.73804 15.7552 7.73804 15.341Z" fill="#1A1E27"/>
<path fill-rule="evenodd" clip-rule="evenodd" d="M7.73804 18.659C7.73804 18.2448 8.07382 17.909 8.48804 17.909H15.588C16.0022 17.909 16.338 18.2448 16.338 18.659C16.338 19.0732 16.0022 19.409 15.588 19.409H8.48804C8.07382 19.409 7.73804 19.0732 7.73804 18.659Z" fill="#1A1E27"/>
<path d="M14.487 9.573H12.914V8H11.083V9.573H9.51001V11.406H11.083V12.979H12.916V11.406H14.489L14.487 9.573Z" fill="#1A1E27"/>
</svg>
