<svg width="68" height="53" viewBox="0 0 68 53" fill="none" xmlns="http://www.w3.org/2000/svg">
<ellipse cx="33.5585" cy="44.6083" rx="9.71429" ry="3.09167" fill="#E6E6EA"/>
<path d="M33.5627 44.1667C32.4447 44.1667 31.3841 43.6298 30.7252 42.7302C28.8676 40.219 26.166 36.3319 23.8438 32.0719C20.9141 26.698 19.4287 22.2509 19.4287 18.8542C19.4287 11.3804 25.7675 5.3 33.559 5.3C41.3506 5.3 47.6895 11.3804 47.6895 18.8542C47.6895 22.2535 46.204 26.7017 43.2744 32.0753C40.9501 36.3384 38.2482 40.2239 36.3909 42.7327C36.1774 43.0238 35.9193 43.2812 35.6262 43.4945C35.0219 43.9342 34.3082 44.1667 33.5627 44.1667Z" fill="#FC8311"/>
<path d="M33.5585 29.1368C38.9236 29.1368 43.2728 24.7865 43.2728 19.4202C43.2728 14.0538 38.9236 9.70351 33.5585 9.70351C28.1935 9.70351 23.8442 14.0538 23.8442 19.4202C23.8442 24.7865 28.1935 29.1368 33.5585 29.1368Z" fill="white"/>
<path d="M38.745 14.2046C39.0567 14.5106 39.305 14.8749 39.4757 15.2767C39.6465 15.6785 39.7363 16.11 39.7402 16.5465C39.744 16.983 39.6617 17.416 39.498 17.8208C39.3343 18.2255 39.0923 18.5941 38.786 18.9055L33.9619 23.8082C33.6555 24.1196 33.2906 24.3676 32.8882 24.5381C32.4858 24.7086 32.0537 24.7983 31.6166 24.802C30.7338 24.8094 29.8842 24.4663 29.2547 23.8481C28.6252 23.2298 28.2674 22.3871 28.2599 21.5053C28.2524 20.6235 28.5959 19.7748 29.2148 19.146L34.0385 14.2433C34.3449 13.932 34.7098 13.6841 35.1122 13.5137C35.5146 13.3433 35.9466 13.2537 36.3837 13.2501C36.8207 13.2465 37.2542 13.329 37.6594 13.4927C38.0645 13.6565 38.4334 13.8984 38.745 14.2046Z" fill="#2588E9"/>
<path d="M29.2554 23.8492C29.212 23.8068 29.1695 23.763 29.1289 23.7173C29.7689 24.0939 30.5165 24.2459 31.2529 24.1491C31.9893 24.0522 32.6721 23.7122 33.1927 23.183L38.0164 18.2807C38.6128 17.6745 38.9541 16.8631 38.97 16.0132C38.9859 15.1634 38.6752 14.3398 38.1018 13.7118C38.5371 13.9682 38.9083 14.3203 39.1872 14.7413C39.466 15.1624 39.6453 15.6413 39.7113 16.1418C39.7773 16.6424 39.7284 17.1513 39.5683 17.6302C39.4081 18.109 39.1409 18.5451 38.7869 18.9054L33.9614 23.8082C33.3427 24.4369 32.4994 24.7944 31.6169 24.8021C30.7344 24.8098 29.885 24.4671 29.2554 23.8492Z" fill="#0069CF"/>
<path d="M31.6269 16.6966L36.374 21.3587L33.9619 23.8101C33.6555 24.1215 33.2906 24.3695 32.8882 24.54C32.4858 24.7105 32.0537 24.8002 31.6166 24.8039C31.1795 24.8076 30.7459 24.7252 30.3407 24.5616C29.9354 24.3979 29.5664 24.1561 29.2547 23.85C28.943 23.5439 28.6947 23.1794 28.524 22.7774C28.3534 22.3755 28.2636 21.9438 28.2599 21.5072C28.2562 21.0706 28.3386 20.6375 28.5025 20.2327C28.6663 19.8279 28.9084 19.4593 29.2148 19.1479L31.6269 16.6966Z" fill="#FEC165"/>
<path d="M29.2559 23.8492C29.2312 23.8255 29.2092 23.8026 29.184 23.776C29.1588 23.7495 29.1476 23.7369 29.1299 23.7173C29.7698 24.0939 30.5175 24.2459 31.2539 24.1491C31.9903 24.0523 32.6731 23.7122 33.1937 23.183L35.6702 20.6654L36.3735 21.3573L33.9619 23.8092C33.3432 24.4378 32.4998 24.7952 31.6173 24.8028C30.7348 24.8104 29.8854 24.4676 29.2559 23.8497V23.8492Z" fill="#FFA820"/>
</svg>
