<svg width="34" height="29" viewBox="0 0 34 29" fill="none" xmlns="http://www.w3.org/2000/svg">
<rect width="34" height="23.2" rx="2" fill="#E8E8E8"/>
<path d="M29.0645 29L21.3871 23.2H29.0645V29Z" fill="#E8E8E8"/>
<g opacity="0.5">
<path d="M18 6.00006L28 6.00006" stroke="#1A1E27" stroke-linecap="round"/>
<path d="M18 10.0001L28 10.0001" stroke="#1A1E27" stroke-linecap="round"/>
<path d="M6 14.0001L28 14.0001" stroke="#1A1E27" stroke-linecap="round"/>
<path d="M6 18.0001L28 18.0001" stroke="#1A1E27" stroke-linecap="round"/>
</g>
<path d="M5 6.69237V4.00006H9V7.76929C9 11.0001 5.5 11.0001 5.5 11.0001V9.38468C6.5 8.84622 7 8.30775 7 6.69237H5Z" fill="#0069CF"/>
<path d="M11 6.69237V4.00006H15V7.76929C15 11.0001 11.5 11.0001 11.5 11.0001V9.38468C12.5 8.84622 13 8.30775 13 6.69237H11Z" fill="#0069CF"/>
</svg>
